HIERARCHY
ROOT ui
{
	 OFFSET 0 0 0
	 CHANNELS 3 XPosition YPosition Z Position
	 EndSite
	 {
	 OFFSET 0 -1 0
	 }
}
ROOT li
{
	 OFFSET 0 0 0
	 CHANNELS 3 XPosition YPosition Z Position
	 EndSite
	 {
	 OFFSET 0 -1 0
	 }
}
ROOT ul
{
	 OFFSET 0 0 0
	 CHANNELS 3 XPosition YPosition Z Position
	 EndSite
	 {
	 OFFSET 0 -1 0
	 }
}
ROOT ll
{
	 OFFSET 0 0 0
	 CHANNELS 3 XPosition YPosition Z Position
	 EndSite
	 {
	 OFFSET 0 -1 0
	 }
}
ROOT tt
{
	 OFFSET 0 0 0
	 CHANNELS 3 XPosition YPosition Z Position
	 EndSite
	 {
	 OFFSET 0 -1 0
	 }
}
ROOT tb
{
	 OFFSET 0 0 0
	 CHANNELS 3 XPosition YPosition Z Position
	 EndSite
	 {
	 OFFSET 0 -1 0
	 }
}
ROOT td
{
	 OFFSET 0 0 0
	 CHANNELS 3 XPosition YPosition Z Position
	 EndSite
	 {
	 OFFSET 0 -1 0
	 }
}
ROOT v
{
	 OFFSET 0 0 0
	 CHANNELS 3 XPosition YPosition Z Position
	 EndSite
	 {
	 OFFSET 0 -1 0
	 }
}
ROOT bn
{
	 OFFSET 0 0 0
	 CHANNELS 3 XPosition YPosition Z Position
	 EndSite
	 {
	 OFFSET 0 -1 0
	 }
}
MOTION
Frames: 19
Frame Time: 0.002
-0.0060866460800170896	-0.004325454235076904	0		0.551798583984375	-2.832173828125	0		-0.920170166015625	0.1936552276611328	0		-0.12668161010742188	-3.3168701171875	0		2.46239111328125	-1.3671767578125	0		3.879854736328125	-0.6927421264648438	0		5.22004345703125	-0.3631676940917969	0		5.853306640625	0.23663465881347656	0		-0.28003787231445315	5.96055322265625	0		
0.003931091070175171	0.005806369781494141	0		0.5197376098632812	-2.813439208984375	0		-0.9130302124023437	0.2108989715576172	0		-0.1399182586669922	-3.307376708984375	0		2.5079189453125	-1.317766845703125	0		3.9118349609375	-0.6822315063476563	0		5.23324951171875	-0.33946493530273436	0		5.852708984375	0.27101129150390624	0		-0.24467979431152342	5.96432177734375	0		
0.018650568008422852	-0.005178792953491211	0		0.5563723754882812	-2.816802001953125	0		-0.9340911254882812	0.21353402709960936	0		-0.15248326110839844	-3.320934814453125	0		2.514421630859375	-1.271802490234375	0		3.93304296875	-0.6585980834960937	0		5.26909521484375	-0.3411560974121094	0		5.8531181640625	0.23607333374023437	0		-0.24630828857421874	5.967615234375	0		
-0.003364201068878174	-6.356989741325378E-4	0		0.5041898803710938	-2.809833251953125	0		-0.9290933837890625	0.21772750854492187	0		-0.16197044372558594	-3.331578857421875	0		2.521962890625	-1.22589306640625	0		3.93600927734375	-0.6527240600585937	0		5.2751767578125	-0.32942532348632814	0		5.8501025390625	0.22023564147949218	0		-0.29521536254882813	5.95159814453125	0		
0.018526512145996092	-0.004813510894775391	0		0.5298980102539063	-2.813109130859375	0		-0.9250606689453125	0.22189390563964845	0		-0.1812313690185547	-3.330108154296875	0		2.5545283203125	-1.1814100341796876	0		3.964962158203125	-0.650288818359375	0		5.29309130859375	-0.33091268920898437	0		5.8516669921875	0.24742822265625	0		-0.24656668090820313	5.96903369140625	0		
-3.542509973049164E-4	0.003605341911315918	0		0.48868768310546873	-2.81338037109375	0		-0.9899047241210938	0.23209579467773436	0		-0.17267054748535157	-3.343110595703125	0		2.571344482421875	-1.12371728515625	0		3.985329345703125	-0.6237509155273437	0		5.3064501953125	-0.30635580444335936	0		5.84637353515625	0.20216580200195314	0		-0.27828829956054685	5.96167578125	0		
0.02565567398071289	0.002283423900604248	0		0.5346516723632813	-2.806049072265625	0		-0.99578173828125	0.23734014892578126	0		-0.1877651824951172	-3.33677880859375	0		2.598143310546875	-1.070214599609375	0		4.01156494140625	-0.6083362426757812	0		5.32755029296875	-0.3009480895996094	0		5.8565166015625	0.22375735473632813	0		-0.23157633972167968	5.9800556640625	0		
-2.6320201158523557E-4	0.0037399299144744874	0		0.49670050048828124	-2.7954365234375	0		-0.9217297973632812	0.23528536987304688	0		-0.20586227416992187	-3.333435302734375	0		2.621954833984375	-1.0186971435546874	0		4.02488671875	-0.5897455444335937	0		5.3396865234375	-0.29542227172851565	0		5.8517080078125	0.24588467407226564	0		-0.27940237426757814	5.963876953125	0		
-0.006282995223999024	-0.0031524860858917238	0		0.5225745239257813	-2.798864990234375	0		-1.0074412841796876	0.247710205078125	0		-0.21207931518554687	-3.3403154296875	0		2.643993896484375	-0.9551803588867187	0		4.05122314453125	-0.572385009765625	0		5.36083544921875	-0.29105877685546877	0		5.84442041015625	0.21271324157714844	0		-0.3082884216308594	5.94336669921875	0		
-0.006171889781951904	-0.0031769800186157225	0		0.49455047607421876	-2.797474365234375	0		-0.9382615356445313	0.2506456298828125	0		-0.21316839599609375	-3.3413125	0		2.660954833984375	-0.8986124267578125	0		4.042668701171875	-0.549493896484375	0		5.3730244140625	-0.28557107543945315	0		5.83479296875	0.25573948669433594	0		-0.26058477783203127	5.95961083984375	0		
-0.006045310974121094	-0.0032377240657806396	0		0.5094854125976562	-2.800799072265625	0		-0.9880838623046875	0.25342794799804685	0		-0.21219564819335937	-3.34037890625	0		2.699890869140625	-0.8454204711914063	0		4.067732666015625	-0.5521580810546876	0		5.394181640625	-0.28323983764648436	0		5.84457861328125	0.21149041748046876	0		-0.2780892639160156	5.96384912109375	0		
0.004250517845153809	0.006505331993103027	0		0.5306842041015625	-2.78925537109375	0		-0.9366218872070312	0.27255996704101565	0		-0.20914686584472655	-3.336513916015625	0		2.708250244140625	-0.7667616577148437	0		4.11230224609375	-0.52414599609375	0		5.39975244140625	-0.25566546630859377	0		5.8476611328125	0.23150901794433593	0		-0.22746261596679687	5.97696533203125	0		
-0.002715656042098999	-5.123159885406495E-4	0		0.5276549072265625	-2.793358154296875	0		-0.9364664306640625	0.27246661376953124	0		-0.2240362548828125	-3.330396728515625	0		2.73227392578125	-0.7103746337890625	0		4.11672998046875	-0.5055055541992187	0		5.42586767578125	-0.257425537109375	0		5.835580078125	0.22270416259765624	0		-0.27826690673828125	5.96566162109375	0		
-0.005615034103393555	-0.003627382040023804	0		0.5178573608398438	-2.7843798828125	0		-0.945436279296875	0.26447900390625	0		-0.237866943359375	-3.32232958984375	0		2.76245361328125	-0.6451014404296875	0		4.11713427734375	-0.48880633544921875	0		5.4381025390625	-0.2519602508544922	0		5.82647998046875	0.23282920837402343	0		-0.26276455688476563	5.975265625	0		
-0.005466008186340332	-0.003823296070098877	0		0.5018420715332031	-2.790331298828125	0		-1.0311087646484376	0.27568682861328125	0		-0.23780145263671876	-3.32251953125	0		2.78841845703125	-0.5937752685546875	0		4.157330078125	-0.4857490234375	0		5.43340673828125	-0.24221415710449218	0		5.8265830078125	0.23223626708984374	0		-0.2293729248046875	5.980544921875	0		
-0.00531805419921875	-0.004050248146057129	0		0.532987548828125	-2.7880654296875	0		-0.9519020385742187	0.278206298828125	0		-0.22077561950683594	-3.327015380859375	0		2.8114541015625	-0.5384099731445312	0		4.1649033203125	-0.45916177368164063	0		5.45359619140625	-0.2398542022705078	0		5.8345322265625	0.23136857604980468	0		-0.2470419921875	5.98561083984375	0		
6.88749998807907E-5	0.010611486434936524	0		0.4734421081542969	-2.767363037109375	0		-1.0216802368164062	0.2830831604003906	0		-0.32522283935546875	-3.299583984375	0		2.85084619140625	-0.46130874633789065	0		4.18447802734375	-0.4327585754394531	0		5.468189453125	-0.21238055419921875	0		5.84246875	0.22881288146972656	0		-0.2147415771484375	5.9918408203125	0		
-0.005026773929595947	-0.004588788986206055	0		0.5244574584960937	-2.7764638671875	0		-0.9656556396484375	0.27489862060546877	0		-0.22929263305664063	-3.31440966796875	0		2.879873046875	-0.40704306030273435	0		4.20379833984375	-0.4223397216796875	0		5.48531640625	-0.21392533874511718	0		5.838224609375	0.21813287353515626	0		-0.24768498229980468	5.98708935546875	0		
-0.00488184118270874	-0.004896331787109375	0		0.48883331298828125	-2.76418798828125	0		-0.9655140380859375	0.27457949829101563	0		-0.2517673492431641	-3.29335302734375	0		2.9360283203125	-0.34520797729492186	0		4.22033203125	-0.3988568420410156	0		5.488576171875	-0.20721588134765626	0		5.82614794921875	0.20954649353027344	0		-0.21551988220214843	5.992263671875	0		
